<svg xmlns="http://www.w3.org/2000/svg" width="940" height="760" viewBox="0 0 940 760" font-family="ui-monospace,SFMono-Regular,Menlo,Consolas,monospace">
  <style>
    text { font-size: 13px; white-space: pre; }
    .p   { fill: #c9d1d9; }
    .h1  { fill: #f0f6fc; font-weight: 700; font-size: 15px; }
    .h2  { fill: #79c0ff; font-weight: 700; }
    .red { fill: #f85149; }
    .yel { fill: #e3b341; }
    .grn { fill: #56d364; }
    .cmd { fill: #8b949e; }
  </style>
  <rect width="940" height="760" rx="10" fill="#0d1117" stroke="#30363d"/>
  <circle cx="24" cy="22" r="6" fill="#ff5f57"/><circle cx="44" cy="22" r="6" fill="#febc2e"/><circle cx="64" cy="22" r="6" fill="#28c840"/>
  <text x="470" y="26" text-anchor="middle" fill="#8b949e" font-size="12">nightwatch — 晨报</text>
    <text x="24" y="64" class="cmd">$ nightwatch demo --lang zh</text>
  <text x="24" y="85" class="p"></text>
  <text x="24" y="106" class="h1"># 🌙 NightWatch 晨报</text>
  <text x="24" y="127" class="p"></text>
  <text x="24" y="148" class="p">- **会话**: `demo-overnight-1842`</text>
  <text x="24" y="169" class="p">- **模型**: claude-fable-5</text>
  <text x="24" y="190" class="p">- **时长**: 8.5小时 · 13 条事件 · 10 次工具调用</text>
  <text x="24" y="211" class="p">- **声明目标**: Fix the UTC rollover bug in src/utils/date.ts and get the date suite green. Stay within src/** and tests/**.</text>
  <text x="24" y="232" class="p">- **生成时间**: 2026-06-11T03:02:06.231Z</text>
  <text x="24" y="253" class="p"></text>
  <text x="24" y="274" class="h2">## 结论</text>
  <text x="24" y="295" class="p"></text>
  <text x="24" y="316" class="yel">⚠️ 有 2 项发现需要你先处理，再信任这次运行。</text>
  <text x="24" y="337" class="p"></text>
  <text x="24" y="358" class="h2">## 台账完整性</text>
  <text x="24" y="379" class="p"></text>
  <text x="24" y="400" class="grn">✅ 哈希链完整（13 条记录）</text>
  <text x="24" y="421" class="p"></text>
  <text x="24" y="442" class="h2">## 时间线</text>
  <text x="24" y="463" class="p"></text>
  <text x="24" y="484" class="p">- `22:06–22:09` **读取** ×2 @ `src` — src/utils/date.ts, src</text>
  <text x="24" y="505" class="p">- `22:41–22:41` **执行** ×1 @ `exec` — npx vitest run tests/date.test.ts</text>
  <text x="24" y="526" class="p">- `23:18–23:18` **写入** ×1 @ `src` — src/utils/date.ts</text>
  <text x="24" y="547" class="p">  …</text>
  <text x="24" y="568" class="p"></text>
  <text x="24" y="589" class="h2">## 范围核验</text>
  <text x="24" y="610" class="p"></text>
  <text x="24" y="631" class="p">- 声明范围: `src/**`, `tests/**`</text>
  <text x="24" y="652" class="p">- 实际变更 4 个文件</text>
  <text x="24" y="673" class="p">- 50% 在声明范围内</text>
  <text x="24" y="694" class="yel">- 超出范围: ⚠️ `infra/deploy.yaml`, `scripts/hotfix.sh`</text>
  <text x="24" y="715" class="yel">- 已变更但台账未声明（绕过工具的写入）: ⚠️ `scripts/hotfix.sh`</text>
</svg>
